Coordinates
version=1
nRows=16
nColumns=42
inDegrees=yes

Units are S.I. units (second, meters, Newtons, ...)
If the header above contains a line with 'inDegrees', this indicates whether rotational values are in degrees (yes) or radians (no).

endheader
time	pelvis_tilt	pelvis_list	pelvis_rotation	pelvis_tx	pelvis_ty	pelvis_tz	hip_flexion_r	hip_adduction_r	hip_rotation_r	knee_angle_r	knee_adduction_r	knee_angle_r_beta	ankle_angle_r	subtalar_angle_r	mtp_angle_r	hip_flexion_l	hip_adduction_l	hip_rotation_l	knee_angle_l	knee_adduction_l	knee_angle_l_beta	ankle_angle_l	subtalar_angle_l	mtp_angle_l	lumbar_extension	lumbar_bending	lumbar_rotation	arm_flex_r	arm_add_r	arm_rot_r	elbow_flex_r	pro_sup_r	wrist_flex_r	wrist_dev_r	arm_flex_l	arm_add_l	arm_rot_l	elbow_flex_l	pro_sup_l	wrist_flex_l	wrist_dev_l
      0.92000000	      4.79056527	      0.14470405	      8.29246511	     -0.63322865	      0.85642167	      0.16127315	     21.22628150	      0.42799761	     -2.30128154	     68.21335232	     -0.16472329	      1.19054759	     17.64255814	    -19.16034356	     -8.11074076	     18.77040149	      9.20389116	     -8.41372453	     38.62880632	    -10.89983256	      0.67419986	     20.80761364	    -14.96495507	     -8.11074076	    -34.60398229	      2.98939959	     -5.23034663	     14.02497035	     -7.28731340	      0.02001125	     38.65339967	     90.00000001	      0.00000000	      0.00000000	     19.25752049	     -9.63289567	    -14.00458512	     30.65436386	     90.00000001	      0.00000000	      0.00000000
      0.93000000	      5.14424044	      0.02546088	      8.63438072	     -0.62470579	      0.85767456	      0.16037343	     21.60459760	      0.56754871	     -2.88716455	     66.01919992	     -0.78060872	      1.15225241	     17.72611819	    -19.15302711	     -8.07656568	     17.56057980	      9.17375638	     -7.78397931	     38.47234907	    -10.95673597	      0.67146916	     21.73423985	    -15.21702150	     -8.07656568	    -35.03727108	      3.40824914	     -5.52148693	     13.99227719	     -6.90573737	     -0.84318382	     37.18628670	     90.00000001	      0.00000000	      0.00000000	     19.33617813	    -10.35799618	    -10.78450542	     32.03829999	     90.00000001	      0.00000000	      0.00000000
      0.94000000	      4.95328262	      0.12166096	      8.74933398	     -0.61663023	      0.85741214	      0.15966261	     22.81026591	      0.29268517	     -2.73823057	     64.17654215	     -0.82791699	      1.12009196	     17.66221527	    -19.11419879	     -8.06848434	     17.17755133	      9.39624866	     -7.90530307	     38.52005260	    -11.26816352	      0.67230175	     22.17798404	    -14.93679899	     -8.06848434	    -34.92217728	      3.43609362	     -5.71998441	     13.48481759	     -6.82807049	     -0.86495167	     36.72888610	     90.00000001	      0.00000000	      0.00000000	     19.95968340	    -10.51670073	    -10.53153000	     32.51380075	     90.00000001	      0.00000000	      0.00000000
      0.95000000	      4.99925739	      0.01267726	      8.96424041	     -0.60838567	      0.85762097	      0.15904143	     23.49284304	      0.32870262	     -2.55903665	     61.76655282	     -0.70657678	      1.07802971	     17.45895361	    -19.07590695	     -8.05811938	     16.52566039	      9.33110901	     -7.84385688	     38.59021721	    -11.52575314	      0.67352635	     22.99482706	    -14.92946386	     -8.05811938	    -35.02442970	      3.74568385	     -5.91486300	     13.23980591	     -6.69322449	     -1.06834011	     35.78663901	     90.00000001	      0.00000000	      0.00000000	     20.50327081	    -10.78558713	     -9.82711795	     33.11813129	     90.00000001	      0.00000000	      0.00000000
      0.96000000	      5.18108728	     -0.02643686	      9.14816991	     -0.59990470	      0.85808929	      0.15859825	     23.85906041	      0.30641735	     -2.53888264	     59.03812631	     -0.68973296	      1.03040969	     17.11443610	    -19.05762441	     -8.04462285	     15.66486738	      9.19027525	     -7.70605226	     38.66724885	    -11.51127539	      0.67487081	     23.70974958	    -14.76800217	     -8.04462285	    -35.28405724	      3.96270582	     -6.06774344	     12.94435860	     -6.51837421	     -1.51356796	     34.91805632	     90.00000001	      0.00000000	      0.00000000	     20.95285892	    -11.12900048	     -8.77996321	     33.93460622	     90.00000001	      0.00000000	      0.00000000
      0.97000000	      5.34178194	      0.00162380	      9.30144559	     -0.59140395	      0.85836116	      0.15825484	     24.18491340	      0.23124701	     -2.63000783	     56.16404143	     -0.83412113	      0.98024744	     16.73187024	    -19.00662889	     -8.02841801	     14.79012340	      9.16477167	     -7.63146780	     38.66343468	    -11.61232902	      0.67480424	     24.36248344	    -14.52848187	     -8.02841801	    -35.51882033	      4.08429174	     -6.24051603	     12.60114466	     -6.29561455	     -2.11449358	     34.27172574	     90.00000001	      0.00000000	      0.00000000	     21.37678740	    -11.52420361	     -7.65042369	     34.80829223	     90.00000001	      0.00000000	      0.00000000
      0.98000000	      5.43866002	      0.11634774	      9.44150964	     -0.58282909	      0.85837295	      0.15784245	     24.51495417	      0.02515002	     -2.89809019	     53.16519051	     -1.07878538	      0.92790762	     16.37641162	    -18.96081052	     -8.00246198	     13.94357421	      9.27814834	     -7.68003668	     38.55006969	    -11.81307871	      0.67282564	     24.99956691	    -14.17891946	     -8.00246198	    -35.67012751	      4.11710615	     -6.40956400	     12.17441300	     -6.08410246	     -2.95469317	     33.74406174	     90.00000001	      0.00000000	      0.00000000	     21.75175857	    -11.91424014	     -6.48344087	     35.68827196	     90.00000001	      0.00000000	      0.00000000
      0.99000000	      5.38982944	      0.17381808	      9.55213780	     -0.57437655	      0.85792569	      0.15758794	     24.94283348	     -0.14906081	     -2.96449543	     50.00490711	     -1.10304279	      0.87275027	     15.97635691	    -18.93830705	     -7.98771526	     13.37366779	      9.30563698	     -7.82842969	     38.63317347	    -12.01991378	      0.67427608	     25.65150548	    -13.97631587	     -7.98771526	    -35.65727444	      4.16568002	     -6.57978462	     11.77069981	     -5.95703846	     -3.35077693	     33.18606562	     90.00000001	      0.00000000	      0.00000000	     22.15142474	    -12.17241034	     -5.95797770	     36.41059470	     90.00000001	      0.00000000	      0.00000000
      1.00000000	      5.19001293	      0.31106792	      9.67137996	     -0.56602505	      0.85700286	      0.15721581	     25.54121025	     -0.49750354	     -3.25359060	     46.88909496	     -1.19920721	      0.81836909	     15.66561429	    -18.86298161	     -7.97800989	     12.95262752	      9.53853547	     -8.06063460	     38.60746708	    -12.42859582	      0.67382742	     26.25171058	    -13.73830285	     -7.97800989	    -35.48727573	      4.12406687	     -6.80755241	     11.29081009	     -5.88611940	     -3.66931612	     32.80224834	     90.00000001	      0.00000000	      0.00000000	     22.53205446	    -12.41013485	     -5.56714016	     37.07624625	     90.00000001	      0.00000000	      0.00000000
      1.01000000	      5.36222400	      0.35385485	      9.74576404	     -0.55729031	      0.85695639	      0.15730089	     25.44029813	     -0.52667737	     -3.75428617	     43.27025053	     -1.53207334	      0.75520834	     15.19480443	    -18.82733303	     -7.96286913	     12.05664454	      9.35827415	     -8.25865077	     38.62283882	    -12.44464260	      0.67409570	     26.99772212	    -13.26792442	     -7.96286913	    -35.71861721	      4.17906612	     -6.89152384	     10.94219781	     -5.69424810	     -4.41982129	     32.29913105	     90.00000001	      0.00000000	      0.00000000	     22.83505888	    -12.73797410	     -4.81997596	     38.03101779	     90.00000001	      0.00000000	      0.00000000
      1.02000000	      4.94029560	      0.66764230	      9.76466189	     -0.54901293	      0.85535879	      0.15710513	     26.28182052	     -1.09145570	     -4.33448858	     40.31338842	     -1.79514083	      0.70360136	     15.03173146	    -18.68079149	     -7.95584493	     11.84530677	      9.88522912	     -8.56773796	     38.54495594	    -12.96204254	      0.67273639	     27.51449109	    -12.98271849	     -7.95584493	    -35.32790455	      3.87605986	     -7.15581138	     10.38830613	     -5.60341352	     -4.65679097	     32.11230292	     90.00000001	      0.00000000	      0.00000000	     23.14236970	    -12.92415487	     -4.60376330	     38.58155472	     90.00000001	      0.00000000	      0.00000000
      1.03000000	      5.16672491	      0.54921898	      9.89003184	     -0.54021884	      0.85530618	      0.15738389	     25.87103125	     -0.92494779	     -5.02495637	     36.44670224	     -2.01349767	      0.63611496	     14.42433072	    -18.58703260	     -7.94170118	     10.95202643	      9.40350215	     -8.83372959	     38.64435803	    -12.91578227	      0.67447129	     28.34813648	    -12.40451644	     -7.94170118	    -35.60659866	      4.11247333	     -7.16852043	     10.09731142	     -5.45605769	     -5.56843868	     31.64442353	     90.00000001	      0.00000000	      0.00000000	     23.35319555	    -13.22730188	     -3.95669677	     39.67046795	     90.00000001	      0.00000000	      0.00000000
      1.04000000	      4.69645295	      0.94571523	      9.86832259	     -0.53186277	      0.85344488	      0.15733240	     26.75028916	     -1.60755337	     -5.86424159	     33.87904516	     -2.20882891	      0.59130089	     14.32342429	    -18.28504809	     -7.93575966	     10.76924757	      9.91837455	     -9.23177626	     38.56232334	    -13.22761539	      0.67303951	     28.81047398	    -12.12033710	     -7.93575966	    -35.15809390	      3.69102364	     -7.34434092	      9.51265047	     -5.42348215	     -5.77472021	     31.51590222	     90.00000001	      0.00000000	      0.00000000	     23.64568571	    -13.33014708	     -3.83356039	     40.19269588	     90.00000001	      0.00000000	      0.00000000
      1.05000000	      4.81486782	      0.72513810	     10.03698290	     -0.52313753	      0.85302293	      0.15778649	     26.29277873	     -1.31935924	     -6.42397628	     30.19302554	     -2.20320467	      0.52696771	     13.65156007	    -18.04637410	     -7.92349674	     10.08123124	      9.40799854	     -9.39997573	     38.77707004	    -13.36403232	      0.67678755	     29.71783259	    -11.56510300	     -7.92349674	    -35.32009682	      4.02318609	     -7.41901064	      9.27631743	     -5.28521899	     -6.63307018	     31.18614647	     90.00000001	      0.00000000	      0.00000000	     23.71710059	    -13.62156236	     -3.42563636	     41.28321254	     90.00000001	      0.00000000	      0.00000000
      1.06000000	      4.48800597	      0.92337477	     10.04197875	     -0.51461678	      0.85144636	      0.15803632	     26.78567689	     -1.68215356	     -7.12652554	     27.83318491	     -2.18291967	      0.48578072	     13.37630874	    -17.64864101	     -7.91631984	      9.76697869	      9.65627322	     -9.68062365	     38.74636091	    -13.70516225	      0.67625157	     30.31870430	    -11.22322927	     -7.91631984	    -35.03306632	      3.83559942	     -7.53215918	      8.81391295	     -5.19520649	     -7.01626750	     31.07266482	     90.00000001	      0.00000000	      0.00000000	     23.85866023	    -13.75475375	     -3.29897120	     41.87813087	     90.00000001	      0.00000000	      0.00000000
      1.07000000	      4.58768496	      0.81731707	     10.09762663	     -0.50559367	      0.85081743	      0.15883828	     26.41353653	     -1.42654416	     -7.40059758	     25.14904418	     -2.10979210	      0.43893362	     12.74902709	    -17.39514776	     -7.90185456	      9.01376084	      9.15982418	     -9.94106439	     38.89154619	    -13.64338588	      0.67878553	     31.18672106	    -10.49371587	     -7.90185456	    -35.14585626	      3.96759437	     -7.49504692	      8.55005994	     -5.06068729	     -8.04371934	     30.81839815	     90.00000001	      0.00000000	      0.00000000	     23.90457574	    -13.91617080	     -3.05668048	     42.86405676	     90.00000001	      0.00000000	      0.00000000
